<svg width="27" height="19" viewBox="0 0 27 19" fill="none" xmlns="http://www.w3.org/2000/svg">
    <path d="M18.2387 16.5679C19.7789 16.0839 21.1197 15.4094 22.1093 14.1636C21.9018 14.2827 21.6943 14.4017 21.4868 14.5207C18.9729 15.9648 16.2834 16.7187 13.3624 16.5838C11.3592 16.4885 9.42787 16.0283 7.54441 15.3618C6.6745 15.0523 5.83652 14.6635 4.98258 14.3144C4.94267 14.2985 4.89479 14.2827 4.83892 14.2906C5.8046 15.5046 7.11345 16.187 8.57393 16.6631C8.11104 17.2344 7.6721 17.7978 7.2172 18.3453C7.16931 18.4088 7.04162 18.4326 6.95383 18.4326C5.17412 18.4008 3.53008 17.9247 2.06959 16.9091C0.824591 16.0442 0.313821 14.7984 0.457475 13.2988C0.696899 10.7913 1.24757 8.35536 2.1893 6.01459C3.43431 2.92001 5.75671 1.11881 9.07672 0.618914C9.30018 0.587174 9.53162 0.56337 9.76306 0.57924C9.89874 0.587174 10.0264 0.682392 10.1461 0.769675C8.10306 1.32511 6.17969 2.07099 4.52767 3.40403C10.4255 0.801415 16.3073 0.825219 22.1732 3.48338C20.601 2.25349 18.7973 1.50761 16.8819 0.936306C17.0096 0.682392 17.1852 0.57924 17.4725 0.603044C21.016 0.936306 23.498 2.72164 24.8547 5.98285C25.7964 8.25221 26.3551 10.6327 26.5945 13.0766C26.7541 14.6635 26.1476 15.9331 24.8148 16.8139C23.3464 17.7819 21.7103 18.258 19.9465 18.3136C19.763 18.3215 19.6353 18.2739 19.5156 18.1231C19.1086 17.6074 18.6856 17.1075 18.2387 16.5679ZM19.8587 10.7596C19.8508 9.47417 18.7893 8.37916 17.5603 8.3871C16.3312 8.39503 15.2698 9.49004 15.2698 10.7437C15.2698 12.0212 16.3312 13.1242 17.5603 13.1321C18.8053 13.1401 19.8667 12.045 19.8587 10.7596ZM7.06556 10.7358C7.06556 12.0212 8.10306 13.1163 9.34008 13.1321C10.5611 13.148 11.6545 12.0292 11.6545 10.7675C11.6545 9.49797 10.5851 8.3871 9.35604 8.3871C8.127 8.3871 7.07354 9.47417 7.06556 10.7358Z" fill="#652682"/>
    </svg>
    