<svg width="21" height="21" viewBox="0 0 21 21" fill="none" xmlns="http://www.w3.org/2000/svg">
    <g clip-path="url(#clip0_31_16)">
    <path d="M16.3388 20.6142C12.7048 20.6142 9.07075 20.6142 5.43672 20.6142C5.05852 20.532 4.67209 20.4909 4.30211 20.3676C2.17267 19.677 0.783187 17.7695 0.774965 15.525C0.766743 12.1705 0.766743 8.81598 0.774965 5.46971C0.774965 4.38444 1.07917 3.3896 1.72047 2.50987C2.76464 1.08751 4.18701 0.380432 5.95469 0.380432C9.21052 0.380432 12.4746 0.380432 15.7304 0.380432C16.0675 0.380432 16.421 0.396876 16.7499 0.454428C18.6245 0.799743 19.9235 1.86035 20.6388 3.61981C20.8197 4.07201 20.8855 4.56532 21.0006 5.04218C21.0006 8.67621 21.0006 12.3102 21.0006 15.9525C20.9759 16.0923 20.9512 16.232 20.9266 16.38C20.573 18.2381 19.5206 19.5372 17.7858 20.2525C17.3254 20.4334 16.8157 20.4991 16.3388 20.6142ZM10.8878 2.08234V2.07412C9.2434 2.07412 7.59905 2.0659 5.94647 2.08234C5.5436 2.09056 5.12429 2.13167 4.74609 2.26322C3.32372 2.74008 2.46043 3.98979 2.46043 5.51904C2.45221 8.84064 2.46043 12.1705 2.46043 15.4921C2.46043 15.7552 2.47687 16.0183 2.53443 16.2731C2.90441 17.8846 4.21989 18.9205 5.88892 18.9205C9.21052 18.9288 12.5403 18.9288 15.8619 18.9123C16.2484 18.9123 16.6595 18.8548 17.0212 18.7314C18.4354 18.2464 19.2986 17.0131 19.2986 15.4921C19.3069 12.1622 19.2986 8.8242 19.2986 5.49438C19.2986 5.28884 19.2822 5.08329 19.2493 4.88597C19.052 3.39783 17.6461 2.10701 16.1497 2.08234C14.3985 2.05768 12.6472 2.08234 10.8878 2.08234Z" fill="#652682"/>
    <path d="M10.879 15.5578C8.0918 15.5578 5.81437 13.2721 5.82259 10.4932C5.83081 7.706 8.10003 5.44501 10.879 5.44501C13.6662 5.44501 15.9436 7.73066 15.9354 10.5096C15.9272 13.2968 13.6579 15.5578 10.879 15.5578ZM10.8872 13.8641C12.7536 13.8559 14.2499 12.3595 14.2499 10.4932C14.2499 8.63506 12.7536 7.13047 10.8872 7.12225C9.02086 7.11403 7.50806 8.63506 7.51628 10.5014C7.5245 12.376 9.02909 13.8723 10.8872 13.8641Z" fill="#652682"/>
    <path d="M16.3629 6.27546C15.6641 6.27546 15.1132 5.7246 15.105 5.02575C15.0968 4.3269 15.6641 3.75137 16.3629 3.75137C17.0536 3.75137 17.6373 4.34334 17.6291 5.02575C17.6126 5.7246 17.0536 6.27546 16.3629 6.27546Z" fill="#652682"/>
    </g>
    <defs>
    <clipPath id="clip0_31_16">
    <rect width="20.2338" height="20.2338" fill="white" transform="translate(0.766235 0.380432)"/>
    </clipPath>
    </defs>
    </svg>
    