<svg width="129" height="151" viewBox="0 0 129 151" fill="none" xmlns="http://www.w3.org/2000/svg">
    <path d="M60.5094 82.492C58.9502 82.492 57.354 81.7482 55.8691 80.2605C55.3123 79.7026 54.7925 79.1819 54.2357 78.6612C52.8622 77.3223 51.4515 75.909 50.1151 74.4957C48.5931 72.8964 48.0363 70.7393 48.5931 68.6937C49.1128 66.7597 50.5977 65.272 52.5652 64.7142C54.7554 64.0819 56.7971 64.6398 58.5048 66.3134C59.1358 66.9457 59.7298 67.578 60.398 68.2474C60.4351 68.2846 60.4722 68.3218 60.5094 68.359L62.6996 66.1647C65.261 63.5984 67.7853 61.0693 70.2725 58.5775C71.7203 57.127 73.2423 56.4947 74.9871 56.5691C77.2886 56.6807 79.0334 57.8708 80.0357 59.9536C81.0009 61.9991 80.7781 64.0447 79.4046 65.9043C79.1076 66.3134 78.7364 66.6853 78.4023 67.0201C73.9847 71.4459 69.5672 75.8718 65.1497 80.2977C63.6648 81.7482 62.1056 82.492 60.5094 82.492ZM54.2728 66.6853C53.9016 66.6853 53.5675 66.7225 53.1963 66.8341C51.9712 67.1688 51.0803 68.0615 50.7462 69.2888C50.4121 70.5533 50.7833 71.9294 51.7485 72.9336C53.0849 74.3469 54.4956 75.723 55.832 77.0619C56.3888 77.6198 56.9085 78.1405 57.4653 78.6984C59.5442 80.7812 61.5117 80.7812 63.5905 78.6984C68.0081 74.2725 72.4256 69.8467 76.8432 65.4208C77.103 65.1605 77.4 64.8629 77.6227 64.5654C78.5137 63.3752 78.625 62.1851 78.0311 60.8834C77.4 59.5445 76.3977 58.875 74.9128 58.8006C73.7991 58.7262 72.8711 59.1725 71.8688 60.1395C69.3816 62.6686 66.8573 65.1605 64.2958 67.7267L61.2889 70.7393C61.0662 70.9624 60.8063 71.074 60.5094 71.074C60.2124 71.074 59.9154 70.9624 59.7298 70.7393C59.4328 70.4046 59.0987 70.107 58.8389 69.8095C58.2078 69.14 57.6138 68.545 56.9828 67.9127C56.1289 67.0945 55.238 66.6853 54.2728 66.6853Z" fill="#DAEFF4"/>
    <path d="M64.6671 101.274C53.716 101.274 42.6907 99.4889 31.7025 95.8813C28.0274 94.6911 26.6167 92.6084 26.691 88.5172C26.9137 77.0993 27.0993 64.9746 26.6538 52.8872C26.4682 48.4613 27.2107 43.7007 33.7813 42.1387L45.809 39.1633C45.8461 39.1633 45.8832 39.1633 45.9203 39.1261C57.8737 37.3037 70.0498 37.2665 83.1169 39.0145C83.154 39.0145 83.1911 39.0145 83.2654 39.0517L95.293 42.1387C101.901 43.6264 102.606 48.387 102.42 52.85C101.975 64.4911 102.123 76.3554 102.346 88.48C102.42 91.9017 101.604 94.468 97.4089 95.8441C86.5692 99.4517 75.6553 101.274 64.6671 101.274ZM46.2544 41.3205L34.2639 44.2586C30.0691 45.2628 28.6213 47.4943 28.8441 52.7384C29.3266 64.8631 29.141 77.0621 28.8812 88.5172C28.8069 91.6042 29.6236 92.8315 32.3707 93.7241C53.9016 100.753 75.5439 100.753 96.6294 93.7241C99.3393 92.8315 100.119 91.6414 100.045 88.5172C99.8219 76.3554 99.6363 64.4539 100.119 52.7384C100.342 47.4572 98.8938 45.2628 94.699 44.2958H94.6619L82.6714 41.2089C69.9013 39.5352 57.9851 39.5724 46.2544 41.3205Z" fill="#DAEFF4"/>
    <path d="M64.5557 151C63.5163 151 62.5511 150.665 61.4746 150.144C40.983 139.805 23.7212 122.697 12.8443 101.981C1.96751 81.2274 -2.22731 57.4988 1.11369 35.1835C1.37355 33.547 1.93038 31.799 4.38046 31.018C8.72377 29.6047 13.7724 28.2658 19.118 26.8153C24.5007 25.3648 30.1062 23.8399 34.8207 22.315C35.4147 22.1291 36.0458 22.4638 36.2314 23.0217C36.417 23.6167 36.0829 24.249 35.5261 24.435C30.7744 25.9598 25.1689 27.4847 19.712 28.9724C14.4035 30.4229 9.39197 31.7618 5.08578 33.1379C3.93499 33.5098 3.56377 34.0305 3.34103 35.5182C0.0742681 57.3872 4.15772 80.5951 14.8489 100.939C25.5402 121.283 42.4679 138.02 62.514 148.136C63.9246 148.843 64.7413 149.029 66.1891 148.359C85.901 139.024 102.829 122.362 113.854 101.423C124.879 80.4835 129.074 57.0525 125.696 35.4066C125.473 33.9933 125.028 33.4727 123.84 33.1007L115.747 30.4973C108.174 28.0798 99.6363 25.3276 93.177 23.2448C92.5831 23.0589 92.2861 22.4266 92.4717 21.8315C92.6573 21.2364 93.2884 20.9389 93.8823 21.1249C100.342 23.2076 108.88 25.9598 116.453 28.3773L124.545 30.9808C126.55 31.6131 127.552 32.8404 127.924 35.0719C131.376 57.164 127.107 81.1158 115.859 102.464C104.611 123.812 87.3117 140.809 67.1914 150.368C66.152 150.814 65.3353 151 64.5557 151Z" fill="white"/>
    <path d="M46.0689 40.9112C45.4749 40.9112 44.9552 40.4278 44.9552 39.7955C44.9552 38.7169 44.9181 37.6755 44.8809 36.6714C44.8067 34.4398 44.7696 32.3199 44.9181 29.9768C45.5491 19.8233 54.4214 11.6411 64.7042 11.7898C74.9129 11.9386 83.4139 19.8605 84.045 29.8652C84.1935 32.2083 84.1563 34.3282 84.0821 36.5598C84.045 37.564 84.045 38.6053 84.045 39.6839C84.045 40.3162 83.5252 40.7997 82.9313 40.7997C82.3002 40.7997 81.8176 40.279 81.8176 39.6839C81.8176 38.6053 81.8548 37.5268 81.8919 36.5226C81.929 34.3282 82.0032 32.2827 81.8547 30.014C81.2979 21.1622 73.7621 14.1329 64.7042 14.0214C64.63 14.0214 64.5558 14.0214 64.4815 14.0214C55.4608 14.0214 47.7022 21.1994 47.1825 30.1255C47.034 32.3571 47.1083 34.4398 47.1454 36.597C47.1825 37.6012 47.1825 38.6797 47.2196 39.7583C47.1825 40.4278 46.6628 40.9112 46.0689 40.9112Z" fill="#DAEFF4"/>
    <path d="M94.9589 43.8865C94.3278 43.8865 93.8452 43.403 93.8452 42.7707C93.8452 41.3946 93.8452 40.0929 93.8823 38.7912C93.9195 36.0018 93.9566 33.3611 93.8452 30.4973C93.5854 23.4308 90.7269 16.6247 85.7526 11.3434C80.8153 6.06212 74.2818 2.8636 67.4513 2.34291C59.9897 1.74784 52.7137 3.75621 46.9598 7.99611C41.2429 12.1988 37.2708 18.4843 35.7488 25.6624C34.9321 29.6047 35.0064 33.3611 35.0806 37.3407C35.1177 39.1259 35.1549 40.9483 35.1177 42.8079C35.1177 43.4402 34.598 43.9237 33.9669 43.8865C33.3359 43.8865 32.8533 43.3658 32.8904 42.7335C32.9275 40.9111 32.8904 39.1259 32.8533 37.3407C32.779 33.4355 32.6677 29.3816 33.5586 25.1789C35.192 17.4801 39.4982 10.7111 45.6605 6.1737C51.8228 1.63626 59.6185 -0.520882 67.6369 0.111384C83.0426 1.30153 95.5528 14.6535 96.0725 30.423C96.1839 33.3239 96.1468 36.0018 96.1097 38.8284C96.1097 40.1301 96.0725 41.4318 96.0725 42.7707C96.0725 43.403 95.59 43.8865 94.9589 43.8865Z" fill="#DAEFF4"/>
    </svg>
    