<svg width="147" height="133" viewBox="0 0 147 133" fill="none" xmlns="http://www.w3.org/2000/svg">
    <path d="M108.214 101.526H71.1833C70.5481 101.526 70.0623 101.035 70.0623 100.392C70.0623 99.75 70.5481 99.2589 71.1833 99.2589H108.214C110.642 99.2589 112.585 97.2563 112.585 94.8381V37.4819C112.585 35.0259 110.605 33.0611 108.214 33.0611H71.1833C70.5481 33.0611 70.0623 32.5699 70.0623 31.9276C70.0623 31.2853 70.5481 30.7941 71.1833 30.7941H108.214C111.875 30.7941 114.827 33.8168 114.827 37.4819V94.8381C114.827 98.5409 111.838 101.526 108.214 101.526Z" fill="white"/>
    <path d="M96.0319 81.4624H71.258C70.6227 81.4624 70.137 80.9712 70.137 80.3288C70.137 79.6865 70.6227 79.1953 71.258 79.1953H94.911V52.7464H71.258C70.6227 52.7464 70.137 52.2552 70.137 51.6129C70.137 50.9706 70.6227 50.4794 71.258 50.4794H96.0319C96.6672 50.4794 97.1529 50.9706 97.1529 51.6129V80.3288C97.1529 80.9712 96.6298 81.4624 96.0319 81.4624Z" fill="white"/>
    <path d="M107.952 119.398H81.1228C80.4875 119.398 80.0018 118.907 80.0018 118.264V100.317C80.0018 99.6744 80.4875 99.1832 81.1228 99.1832C81.758 99.1832 82.2438 99.6744 82.2438 100.317V117.131H107.952C108.587 117.131 109.073 117.622 109.073 118.264C109.073 118.907 108.587 119.398 107.952 119.398Z" fill="white"/>
    <path d="M136.014 87.8483H126.448C125.813 87.8483 125.327 87.3571 125.327 86.7147V71.3744H96.032C95.3968 71.3744 94.911 70.8832 94.911 70.2408C94.911 69.5985 95.3968 69.1073 96.032 69.1073H126.448C127.084 69.1073 127.569 69.5985 127.569 70.2408V85.5812H136.014C136.649 85.5812 137.135 86.0724 137.135 86.7147C137.135 87.3571 136.612 87.8483 136.014 87.8483Z" fill="white"/>
    <path d="M113.706 87.848H102.048C101.413 87.848 100.927 87.3568 100.927 86.7145C100.927 86.0721 101.413 85.5809 102.048 85.5809H113.706C114.342 85.5809 114.827 86.0721 114.827 86.7145C114.827 87.3568 114.342 87.848 113.706 87.848Z" fill="white"/>
    <path d="M113.706 124.386C110.343 124.386 107.653 121.627 107.653 118.265C107.653 114.902 110.381 112.144 113.706 112.144C117.032 112.144 119.76 114.902 119.76 118.265C119.76 121.627 117.069 124.386 113.706 124.386ZM113.706 114.373C111.614 114.373 109.895 116.111 109.895 118.227C109.895 120.343 111.614 122.081 113.706 122.081C115.799 122.081 117.518 120.343 117.518 118.227C117.518 116.111 115.799 114.373 113.706 114.373Z" fill="white"/>
    <path d="M140.947 92.8359C137.584 92.8359 134.893 90.0777 134.893 86.7149C134.893 83.3521 137.621 80.5939 140.947 80.5939C144.272 80.5939 147 83.3521 147 86.7149C147 90.0777 144.272 92.8359 140.947 92.8359ZM140.947 82.8231C138.854 82.8231 137.135 84.5612 137.135 86.6771C137.135 88.793 138.854 90.5311 140.947 90.5311C143.039 90.5311 144.758 88.793 144.758 86.6771C144.758 84.5612 143.039 82.8231 140.947 82.8231Z" fill="white"/>
    <path d="M81.1602 33.0611C80.5249 33.0611 80.0392 32.5699 80.0392 31.9276V13.9424C80.0392 13.3 80.5249 12.8088 81.1602 12.8088H107.989C108.625 12.8088 109.11 13.3 109.11 13.9424C109.11 14.5847 108.625 15.0759 107.989 15.0759H82.2812V31.8898C82.2812 32.5321 81.758 33.0611 81.1602 33.0611Z" fill="white"/>
    <path d="M126.411 63.0995H96.032C95.3968 63.0995 94.911 62.6083 94.911 61.966C94.911 61.3237 95.3968 60.8325 96.032 60.8325H125.327V45.4922C125.327 44.8498 125.813 44.3586 126.448 44.3586H136.014C136.649 44.3586 137.135 44.8498 137.135 45.4922C137.135 46.1345 136.649 46.6257 136.014 46.6257H127.569V61.966C127.532 62.6083 127.046 63.0995 126.411 63.0995Z" fill="white"/>
    <path d="M113.706 46.6257H102.048C101.413 46.6257 100.927 46.1345 100.927 45.4922C100.927 44.8498 101.413 44.3586 102.048 44.3586H113.706C114.342 44.3586 114.827 44.8498 114.827 45.4922C114.827 46.1345 114.342 46.6257 113.706 46.6257Z" fill="white"/>
    <path d="M113.706 20.1014C110.343 20.1014 107.653 17.3432 107.653 13.9804C107.653 10.6176 110.381 7.85938 113.706 7.85938C117.032 7.85938 119.76 10.6176 119.76 13.9804C119.76 17.3432 117.069 20.1014 113.706 20.1014ZM113.706 10.0886C111.614 10.0886 109.895 11.8267 109.895 13.9426C109.895 16.0585 111.614 17.7966 113.706 17.7966C115.799 17.7966 117.518 16.0585 117.518 13.9426C117.518 11.8267 115.799 10.0886 113.706 10.0886Z" fill="white"/>
    <path d="M140.947 51.6137C137.584 51.6137 134.893 48.8554 134.893 45.4926C134.893 42.1298 137.621 39.3716 140.947 39.3716C144.272 39.3716 147 42.1298 147 45.4926C147 48.8554 144.272 51.6137 140.947 51.6137ZM140.947 41.6386C138.854 41.6386 137.135 43.3767 137.135 45.4926C137.135 47.6085 138.854 49.3466 140.947 49.3466C143.039 49.3466 144.758 47.6085 144.758 45.4926C144.758 43.3767 143.039 41.6386 140.947 41.6386Z" fill="white"/>
    <path d="M32.3594 119.7C27.0534 119.7 21.7847 117.659 17.7491 113.579C10.5 106.249 9.67791 94.4977 15.8434 86.223C16.2171 85.7318 16.927 85.6184 17.4128 85.9963C17.8986 86.3741 18.0107 87.092 17.637 87.5832C12.1441 94.9511 12.8541 105.417 19.3185 111.954C26.4929 119.209 38.1886 119.209 45.363 111.954C47.605 109.687 49.2491 106.853 50.1085 103.755C50.258 103.15 50.8932 102.81 51.4911 102.961C52.089 103.112 52.4253 103.755 52.2758 104.359C51.3416 107.836 49.5107 111.009 46.9697 113.541C42.9342 117.659 37.6281 119.7 32.3594 119.7Z" fill="#DAEFF4"/>
    <path d="M17.0018 38.1622C16.5534 38.1622 16.1424 37.8977 15.9555 37.4821C15.1335 35.5173 14.7224 33.4014 14.7224 31.2477C14.7224 22.4063 21.8221 15.2273 30.5659 15.2273C32.6958 15.2273 34.7509 15.6429 36.694 16.4742C37.2545 16.7009 37.5161 17.381 37.2919 17.9477C37.0677 18.5145 36.3951 18.779 35.8346 18.5523C34.1531 17.8344 32.3968 17.4943 30.5659 17.4943C23.0926 17.4943 16.9644 23.6531 16.9644 31.2477C16.9644 33.0992 17.3381 34.9128 18.0481 36.6131C18.2723 37.1798 18.0107 37.86 17.4502 38.0867C17.2634 38.1244 17.1139 38.1622 17.0018 38.1622Z" fill="#DAEFF4"/>
    <path d="M15.1335 87.5831C10.089 87.5831 5.15658 84.976 2.12989 80.5553C0.747331 78.4772 0 76.059 0 73.5652V52.7084C0 43.9425 6.91281 36.6502 15.395 36.3857C19.6922 36.2723 23.8025 37.8593 26.8665 40.9198C29.968 43.9425 31.6495 48.0232 31.6495 52.4061C31.6495 53.0485 31.1637 53.5397 30.5285 53.5397C29.8932 53.5397 29.4075 53.0485 29.4075 52.4061C29.4075 48.6655 27.9502 45.1516 25.2972 42.5445C22.6441 39.9374 19.1317 38.5394 15.4324 38.6527C8.18327 38.8416 2.24199 45.1516 2.24199 52.6706V73.5275C2.24199 75.5678 2.83986 77.5326 3.99822 79.2328C6.95018 83.5402 11.9947 85.8829 16.927 85.165C19.8416 84.7493 22.4947 83.3891 24.5872 81.2732C25.0356 80.8198 25.7456 80.8198 26.1566 81.2732C26.605 81.7266 26.605 82.4445 26.1566 82.8601C23.7278 85.3161 20.6263 86.903 17.226 87.3942C16.5534 87.5076 15.8434 87.5831 15.1335 87.5831Z" fill="#DAEFF4"/>
    <path d="M53.7331 133C49.3612 133 44.9893 131.489 41.5516 128.466C38.637 125.897 36.6192 122.609 35.6851 118.869C35.5356 118.264 35.9093 117.66 36.5071 117.509C37.105 117.357 37.7029 117.735 37.8523 118.34C38.6744 121.627 40.468 124.536 43.0089 126.803C49.2118 132.282 58.815 132.093 64.8683 126.463C65.0552 126.274 65.242 126.123 65.3915 125.934C68.0071 123.289 69.5018 119.473 69.5018 115.506L70.137 18.892C70.137 9.71051 62.7758 2.26705 53.7331 2.26705C44.6904 2.26705 37.3666 9.71051 37.3666 18.8165C37.3666 21.6881 38.1139 24.4841 39.4965 26.9778C39.7954 27.5068 39.6086 28.2247 39.0854 28.527C38.5623 28.8293 37.8523 28.6403 37.5534 28.1114C35.9466 25.2776 35.1246 22.1037 35.1246 18.8165C35.1246 8.46364 43.4947 0 53.7331 0C63.9716 0 72.3417 8.46364 72.3417 18.8165L71.7438 115.468C71.7438 120.002 70.0249 124.385 66.9982 127.484C66.8114 127.672 66.5872 127.899 66.4004 128.088C62.8506 131.337 58.2918 133 53.7331 133Z" fill="#DAEFF4"/>
    <path d="M30.9769 64.6869C27.6139 64.6869 24.9235 61.9286 24.9235 58.5658C24.9235 55.2031 27.6512 52.4448 30.9769 52.4448C34.3025 52.4448 37.0302 55.2031 37.0302 58.5658C37.0302 61.9286 34.3025 64.6869 30.9769 64.6869ZM30.9769 54.6741C28.8843 54.6741 27.1655 56.4121 27.1655 58.5281C27.1655 60.644 28.8843 62.382 30.9769 62.382C33.0694 62.382 34.7882 60.644 34.7882 58.5281C34.7882 56.4121 33.0694 54.6741 30.9769 54.6741Z" fill="#DAEFF4"/>
    <path d="M53.0231 105.002C49.6601 105.002 46.9697 102.244 46.9697 98.8809C46.9697 95.5181 49.6975 92.7599 53.0231 92.7599C56.3487 92.7599 59.0765 95.5181 59.0765 98.8809C59.0765 102.244 56.3487 105.002 53.0231 105.002ZM53.0231 95.0269C50.9306 95.0269 49.2117 96.765 49.2117 98.8809C49.2117 100.997 50.9306 102.735 53.0231 102.735C55.1156 102.735 56.8345 100.997 56.8345 98.8809C56.8345 96.765 55.1156 95.0269 53.0231 95.0269Z" fill="#DAEFF4"/>
    <path d="M28.548 83.918C25.185 83.918 22.4947 81.1597 22.4947 77.7969C22.4947 74.4341 25.2224 71.6759 28.548 71.6759C31.8737 71.6759 34.6014 74.4341 34.6014 77.7969C34.6014 81.1597 31.911 83.918 28.548 83.918ZM28.548 73.943C26.4555 73.943 24.7366 75.681 24.7366 77.7969C24.7366 79.9128 26.4555 81.6509 28.548 81.6509C30.6406 81.6509 32.3594 79.9128 32.3594 77.7969C32.3594 75.681 30.6406 73.943 28.548 73.943Z" fill="#DAEFF4"/>
    <path d="M40.879 38.6533C37.516 38.6533 34.8256 35.8951 34.8256 32.5323C34.8256 29.1695 37.5534 26.4113 40.879 26.4113C44.2046 26.4113 46.9324 29.1695 46.9324 32.5323C46.9324 35.8951 44.2046 38.6533 40.879 38.6533ZM40.879 28.6405C38.7865 28.6405 37.0676 30.3786 37.0676 32.4945C37.0676 34.6104 38.7865 36.3485 40.879 36.3485C42.9715 36.3485 44.6904 34.6104 44.6904 32.4945C44.6904 30.3786 42.9715 28.6405 40.879 28.6405Z" fill="#DAEFF4"/>
    </svg>
    