<svg width="21" height="17" viewBox="0 0 21 17" fill="none" xmlns="http://www.w3.org/2000/svg">
    <path d="M18.2669 3.10592C18.2669 3.10592 19.7935 1.86331 19.9178 0.851479C19.1367 1.36627 18.2491 1.70355 17.326 1.84556C17.326 1.84556 15.8882 0.0704145 13.2254 0.709468C10.5627 1.34852 9.99467 4.33077 10.3142 5.52012C10.3142 5.52012 5.68106 5.59112 1.9 1.29527C1.9 1.29527 0.0538415 4.38402 3.23136 6.76272C3.23136 6.76272 1.70473 6.65621 1.36745 6.28343C1.36745 6.28343 1.22544 9.5142 4.68698 10.313C4.08343 10.5083 3.42662 10.5615 2.78757 10.4905C2.78757 10.4905 3.6929 13.1533 6.62189 13.2243C6.62189 13.2243 3.95917 15.4254 0.515381 14.9462C3.05384 16.597 6.1426 17.1828 9.1071 16.5615C9.33787 16.5083 9.58639 16.455 9.81716 16.384C12.9592 15.4254 15.6751 13.384 17.184 10.4373C17.2905 10.242 17.3793 10.0467 17.468 9.83373C18.2314 8.18284 18.5686 6.37219 18.4799 4.54379C18.4799 4.54379 20.0243 3.46095 20.5213 2.48462C19.7935 2.78639 19.0302 2.99941 18.2669 3.10592Z" fill="#652682"/>
    </svg>
    